<svg width="24" height="24" viewBox="0 0 24 24" fill="none" xmlns="http://www.w3.org/2000/svg">
<path d="M18 2H6c-.6 0-1 .4-1 1v18c0 .6.4 1 1 1h12c.6 0 1-.4 1-1V3c0-.6-.4-1-1-1zM13.5 20h-3v-4h3v4zM17 20h-2.5v-4.5c0-.3-.2-.5-.5-.5h-4c-.3 0-.5.2-.5.5V20H7V4h10v16zM9 7h2c.3 0 .5-.2.5-.5v-2c0-.3-.2-.5-.5-.5H9c-.3 0-.5.2-.5.5v2c0 .3.2.5.5.5zm.5-2h1v1h-1V5zM13 7h2c.3 0 .5-.2.5-.5v-2c0-.3-.2-.5-.5-.5h-2c-.3 0-.5.2-.5.5v2c0 .3.2.5.5.5zm.5-2h1v1h-1V5zM9 11h2c.3 0 .5-.2.5-.5v-2c0-.3-.2-.5-.5-.5H9c-.3 0-.5.2-.5.5v2c0 .3.2.5.5.5zm.5-2h1v1h-1V9zM13 11h2c.3 0 .5-.2.5-.5v-2c0-.3-.2-.5-.5-.5h-2c-.3 0-.5.2-.5.5v2c0 .3.2.5.5.5zm.5-2h1v1h-1V9z" fill="currentColor"/>
</svg>